<?xml version="1.0" encoding="utf-8"?>
<!-- Generator: Adobe Illustrator 16.0.0, SVG Export Plug-In . SVG Version: 6.00 Build 0)  -->
<!DOCTYPE svg PUBLIC "-//W3C//DTD SVG 1.1//EN" "http://www.w3.org/Graphics/SVG/1.1/DTD/svg11.dtd">
<svg version="1.1" id="Layer_1" xmlns="http://www.w3.org/2000/svg" xmlns:xlink="http://www.w3.org/1999/xlink" x="0px" y="0px"
	 width="5149px" height="1853px" viewBox="0 0 5149 1853" enable-background="new 0 0 5149 1853" xml:space="preserve">
<g id="v">
	<linearGradient id="SVGID_1_" gradientUnits="userSpaceOnUse" x1="2983.5029" y1="1234.4932" x2="4346.0078" y2="-128.0118">
		<stop  offset="0.0108" style="stop-color:#1E429B"/>
		<stop  offset="0.0992" style="stop-color:#1C459D"/>
		<stop  offset="0.1617" style="stop-color:#164EA3"/>
		<stop  offset="0.2159" style="stop-color:#0C5EAD"/>
		<stop  offset="0.2419" style="stop-color:#0568B4"/>
		<stop  offset="0.3128" style="stop-color:#057EC4"/>
		<stop  offset="0.4424" style="stop-color:#04A1DD"/>
		<stop  offset="0.5489" style="stop-color:#04B6EC"/>
		<stop  offset="0.6183" style="stop-color:#04BEF2"/>
		<stop  offset="0.6261" style="stop-color:#0ABFF2"/>
		<stop  offset="0.6907" style="stop-color:#38C9F4"/>
		<stop  offset="0.7554" style="stop-color:#5FD0F6"/>
		<stop  offset="0.8193" style="stop-color:#7DD6F7"/>
		<stop  offset="0.8819" style="stop-color:#92DBF8"/>
		<stop  offset="0.9428" style="stop-color:#9FDDF9"/>
		<stop  offset="1" style="stop-color:#A3DEF9"/>
	</linearGradient>
	<path fill="url(#SVGID_1_)" d="M4336.52,74.5c70.67,0,141.33-0.01,212,0c-388.379,458.98-776.67,918.04-1165.06,1377.01
		c-60.979-0.029-121.97,0-182.95-0.01c-117.68-232.66-235.34-465.33-352.99-698c69.66,0,139.32,0,208.98,0
		c91.02,169.99,181.98,340,273.01,509.98C3665.2,867.17,4000.83,470.81,4336.52,74.5z"/>
</g>
<g id="Drie">
	<linearGradient id="SVGID_2_" gradientUnits="userSpaceOnUse" x1="200.3398" y1="1566.9102" x2="1114.7771" y2="652.473">
		<stop  offset="0.6559" style="stop-color:#818285"/>
		<stop  offset="0.7714" style="stop-color:#8F9093"/>
		<stop  offset="0.9907" style="stop-color:#B5B6B8"/>
		<stop  offset="1" style="stop-color:#B7B8BA"/>
	</linearGradient>
	<path fill="url(#SVGID_2_)" d="M209.16,753.45c306.08,0.02,612.17,0,918.26,0.02c40.62,0.521,81.58,11.15,115.97,33.12
		c15.35,9.89,29.3,22.11,40.36,36.68c9.91,13.07,17.61,27.81,22.76,43.38c7.04,21.66,7.59,45.03,3.66,67.36
		c-19.87,112.86-39.78,225.711-59.67,338.57c-3.73,21.12-10.8,41.72-21.46,60.37c-17.59,30.31-42.98,55.91-72.56,74.61
		c-29.87,19.01-63.42,31.97-98.03,39.16c-21.34,4.46-43.19,6.1-64.97,5.779c-302.52,0-605.03,0.01-907.55,0
		c25.61-145.83,51.37-291.63,77.08-437.439c63.04,0.039,126.07,0.05,189.11-0.011c-14.81,84.46-29.8,168.89-44.59,253.351
		c208.65,0.039,417.3,0.01,625.95,0.02c20.06,0.23,40.3-0.109,59.96-4.56c18.04-3.95,35.84-11.28,49.49-24.011
		c14.4-13.279,24.36-30.76,30.63-49.189c5.83-16.52,8.13-33.96,11.26-51.12c4.29-24.39,8.6-48.771,12.88-73.16
		c3.87-22.35,9.26-45.03,5.86-67.81c-2.44-17.82-10.95-35.74-26.29-45.89c-15.83-10.551-35.09-14.07-53.71-15.771
		c-22-1.4-44.06-0.6-66.08-0.811c-260.19,0.021-520.38-0.039-780.56,0.03C187.65,875.24,198.32,814.33,209.16,753.45z"/>
	<linearGradient id="SVGID_3_" gradientUnits="userSpaceOnUse" x1="1445.2021" y1="1591.7725" x2="2361.7151" y2="675.2595">
		<stop  offset="0.4946" style="stop-color:#818285"/>
		<stop  offset="0.5864" style="stop-color:#858689"/>
		<stop  offset="0.6856" style="stop-color:#929396"/>
		<stop  offset="0.788" style="stop-color:#A8A9AB"/>
		<stop  offset="0.8441" style="stop-color:#B7B8BA"/>
	</linearGradient>
	<path fill="url(#SVGID_3_)" d="M1429.16,753.46c304.43,0.01,608.85,0,913.28,0c25.21-0.1,50.54,2.95,74.69,10.38
		c26.92,8.2,52.75,21.27,73.51,40.49c15.75,14.5,27.53,33.08,34.67,53.22c7.12,19.61,8.91,40.85,6.92,61.52
		c-0.91,9.88-2.94,19.6-4.59,29.37c-4.97,28.041-9.88,56.091-14.85,84.131c-3.13,17.76-9.63,34.92-19.06,50.29
		c-18.23,29.05-44.24,52.77-73.46,70.47c-42.85,25.68-93.29,37.439-143.04,36.38c53.79,87.64,107.69,175.221,161.59,262.8
		c-69.73-0.02-139.45-0.01-209.17-0.01c-57.83-87.62-115.75-175.189-173.59-262.811c-171.57-0.049-343.14,0-514.7-0.02
		c-15.42,87.61-30.87,175.21-46.33,262.82c-63.04,0.029-126.07,0-189.1,0.01c25.61-145.83,51.37-291.63,77.07-437.439
		c314.6,0.05,629.2,0.029,943.8,0.01c4.47-26.34,9.39-52.61,13.77-78.971c-314.55,0.011-629.11-0.039-943.66,0.03
		C1407.66,875.24,1418.31,814.33,1429.16,753.46z"/>
	<linearGradient id="SVGID_4_" gradientUnits="userSpaceOnUse" x1="2420.2471" y1="1355.2568" x2="2924.7568" y2="850.7472">
		<stop  offset="0.4194" style="stop-color:#818285"/>
		<stop  offset="0.4456" style="stop-color:#848588"/>
		<stop  offset="0.808" style="stop-color:#A9AAAC"/>
		<stop  offset="1" style="stop-color:#B7B8BA"/>
	</linearGradient>
	<path fill="url(#SVGID_4_)" d="M2638.51,753.5c63.33,0.34,126.66,0.67,190,1c-40.689,232.67-81.33,465.34-122.01,698
		c-63.34-0.33-126.67-0.67-190.01-1C2557.18,1218.83,2597.83,986.16,2638.51,753.5z"/>
	<g>
		<g>
			<linearGradient id="SVGID_5_" gradientUnits="userSpaceOnUse" x1="4054.5068" y1="1553.2559" x2="4970.1514" y2="637.6116">
				<stop  offset="0.3495" style="stop-color:#818285"/>
				<stop  offset="0.5037" style="stop-color:#8E8F92"/>
				<stop  offset="0.7867" style="stop-color:#AFB0B2"/>
				<stop  offset="0.8441" style="stop-color:#B7B8BA"/>
			</linearGradient>
			<path fill="url(#SVGID_5_)" d="M4167.529,751.49c-44.469,3.3-88.72,13.69-129.06,32.95c-10.11,4.94-19.72,10.82-29.22,16.81
				c-30.94,20.35-56.61,48.83-72.87,82.16c-7.82,16.11-14.22,33.07-17.45,50.73c377.631-0.08,755.26-0.03,1132.881-0.03
				c10.75-60.88,21.5-121.76,32.189-182.65C4778.51,751.48,4473.02,751.42,4167.529,751.49z M3905.03,1013.061
				c-14.841,83.789-29.54,167.609-44.36,251.399c-5.89,31.771-3.18,65.62,10.689,95.07c14.36,31.1,42.041,54.569,73.101,68.069
				c23.97,11.021,49.84,17.24,75.89,20.891c7.67,0.84,15.33,2.34,23.11,2.01c305.76-0.01,611.529,0,917.29,0
				c10.87-61.35,21.71-122.71,32.439-184.09c-314.56,0-629.109,0.029-943.67-0.01c4.55-26.25,9.271-52.48,13.83-78.73
				c314.58,0.02,629.16-0.04,943.75,0.03c10.32-58.2,20.5-116.431,30.83-174.62C4660.3,1013.08,4282.66,1013.11,3905.03,1013.061z"
				/>
		</g>
	</g>
</g>
<g id="Cae_Hire">
	<path fill="#004988" d="M2540.71,1570.76c15.7-10.75,34.81-16.32,53.81-15.94c92.051,0,184.09,0.011,276.141,0
		c-3.471,18.991-6.71,38.03-10.141,57.031c-72.35-0.12-144.71-0.04-217.069-0.051c-10.86,0.101-21.73-0.28-32.57,0.29
		c-10.31,0.561-20.57,3.141-29.61,8.2c-8.43,4.771-16.02,12.44-17.859,22.26c-1.851,13.681-4.78,27.19-6.851,40.851
		c-0.77,6.369,2.69,12.52,7.45,16.55c8.58,7.6,20.311,10.42,31.521,10.79c82.54,0.1,165.09-0.051,247.63,0.079
		c-3.49,19.381-6.851,38.791-10.26,58.19c-93.791,0.07-187.58-0.02-281.37,0.04c-18-0.05-36.87-6.75-48.36-21.1
		c-5.5-6.53-8.58-14.98-8.59-23.5c-0.28-6.33,1.37-12.48,2.35-18.67c5.811-33.11,11.63-66.211,17.51-99.3
		C2517.46,1591.41,2528.22,1579.11,2540.71,1570.76z"/>
	<path fill="#004988" d="M3024.12,1555.061c18.649-0.65,37.33,0.06,55.989-0.301c36.41,71.25,71.9,142.971,108.221,214.271
		c-19.12,0.03-38.221-0.04-57.33,0.03c-15.55-27.41-30.87-54.961-46.561-82.291c-36.709,0.32-73.43-0.5-110.13,0.411
		c-25.81,26.97-50.819,54.68-76.45,81.829c-18.979-0.05-37.97,0.24-56.949-0.159c37.79-43.48,75.13-87.36,112.85-130.9
		c35.391,0.04,70.771,0,106.16,0.03c-4.84-8.58-9.57-17.23-14.45-25.78c-23.729-0.9-47.59-0.25-71.37-0.32
		C2990.89,1593.04,3007.26,1573.84,3024.12,1555.061z"/>
	<path fill="#004988" d="M3234.189,1554.79c85.801,0.09,171.591,0.01,257.38,0.029c17.49,0.021,35.661-1.089,52.301,5.341
		c9.6,3.779,18.72,10.21,23.47,19.62c5.18,10.1,5.79,22.039,3.561,33.03c-3.12,16-4.03,33.09-12.69,47.379
		c-8.07,13.44-23.18,20.82-38.09,23.851c-10.39,2.19-21.03,2.649-31.601,2.86c18.08,27.51,36.681,54.669,54.95,82.06
		c-20.43,0.09-40.87,0.24-61.29-0.1c-17.949-27.57-36.61-54.671-54.84-82.05c-53.689,0.009-107.38-0.08-161.06,0.05
		c-4.49,27.409-9.86,54.68-14.19,82.13c-18.6,0.13-37.189-0.03-55.78,0.07c7.74-44.45,15.66-88.871,23.45-133.301
		c96.46,0.03,192.92,0.01,289.37,0c1.31-8.01,2.71-16.01,4.24-23.979c-96.46,0.06-192.92-0.05-289.38,0.05
		C3227.39,1592.819,3230.5,1573.75,3234.189,1554.79z"/>
	<path fill="#004988" d="M3725.62,1554.78c18.479,0.14,36.97-0.04,55.46,0.039c-5.07,27.361-9.53,54.841-14.6,82.2
		c78.67,0.011,157.35,0.15,236.02-0.08c4.71-27.399,9.609-54.759,14.46-82.129c18.54,0.109,37.08-0.101,55.63,0.079
		c-12.78,71.341-25.15,142.75-37.81,214.11c-18.55,0.061-37.091,0.03-55.63,0.04c4.609-26.88,9.909-53.64,13.899-80.63
		c-78.55,0.58-157.11-0.07-235.67,0.33c-4.51,26.779-9.62,53.46-13.91,80.279c-18.64,0-37.27,0.05-55.9-0.029
		C3700.55,1697.65,3712.53,1626.11,3725.62,1554.78z"/>
	<path fill="#004988" d="M4118.79,1554.9c18.601-0.101,37.199-0.12,55.81-0.021c-12.8,71.34-25.16,142.75-37.81,214.11
		c-18.54,0.11-37.08-0.01-55.61,0.06C4093.68,1697.66,4106.439,1626.319,4118.79,1554.9z"/>
	<path fill="#004988" d="M4221.67,1554.87c92.939-0.08,185.879-0.06,278.819-0.01c10.831,0.25,21.821,1.67,31.96,5.709
		c7.971,3.271,15.6,8.241,20.361,15.601c6.799,10.32,8.42,23.47,5.92,35.431c-3.281,16.5-4.061,34.18-13.041,48.899
		c-7.99,13.34-23.12,20.38-37.81,23.5c-10.5,2.29-21.28,2.65-31.96,3.02c18.7,27.12,36.62,54.791,55.29,81.931
		c-20.38,0.16-40.761,0.08-61.141,0.05c-18.27-27.45-36.699-54.79-55.1-82.14c-53.649-0.13-107.3-0.041-160.94-0.05
		c-4.699,26.47-9.399,52.939-13.98,79.439c-0.359,0.931-0.31,2.73-1.648,2.74c-18.221,0.06-36.451,0.11-54.661-0.04
		c8.11-44.27,15.911-88.61,23.45-132.99c96.5-0.46,193.01-0.021,289.521-0.22c1.43-7.96,2.771-15.94,4.19-23.9
		c-96.44-0.12-192.881-0.01-289.311-0.05C4215.02,1592.83,4218.23,1573.83,4221.67,1554.87z"/>
	<path fill="#004988" d="M4623,1571.95c15.43-11.15,34.439-17.11,53.46-17.12c92.72,0.06,185.43-0.141,278.14,0.09
		c-3.289,18.91-6.82,37.78-9.9,56.72c-115.789,0.36-231.569,0.061-347.35,0.15C4599.279,1595.45,4609.609,1581.08,4623,1571.95z"/>
	<path fill="#004988" d="M4593.27,1635.78c115.72,0.1,231.449-0.25,347.18,0.18c-3.329,16.89-6.029,33.89-9.049,50.84
		c-97.201,0.02-194.391-0.05-291.58,0.04c-1.34,7.971-2.67,15.96-4.371,23.87c97.261,0.14,194.52-0.01,291.79,0.08
		c-3.63,19.35-6.97,38.75-10.259,58.16c-92.811,0.22-185.621-0.02-278.432,0.119c-15.619,0.431-31.77-3.789-44.049-13.709
		c-6.65-5.541-12.431-12.671-14.59-21.18c-2.09-7.841-1.421-16.101,0.199-23.961C4584.48,1685.4,4588.85,1660.59,4593.27,1635.78z"
		/>
</g>
</svg>
